<?xml version="1.0" encoding="iso-8859-1"?>
<!-- Generator: Adobe Illustrator 19.0.0, SVG Export Plug-In . SVG Version: 6.00 Build 0)  -->
<svg version="1.1" id="Layer_1" xmlns="http://www.w3.org/2000/svg" xmlns:xlink="http://www.w3.org/1999/xlink" x="0px" y="0px"
	 viewBox="0 0 512 512" style="enable-background:new 0 0 512 512;" xml:space="preserve">
<path style="fill:#8CC1EA;" d="M512,132.73v246.54c0,5.42-4.394,9.814-9.814,9.814H154.034c-5.42,0-9.814-4.394-9.814-9.814V132.73
	c0-5.42,4.394-9.814,9.814-9.814h348.152C507.606,122.916,512,127.31,512,132.73z"/>
<path style="fill:#79B1D6;" d="M512,132.755L374.284,256L512,379.27l0,0c0,5.42-4.394,9.814-9.814,9.814h-1.198L363.284,265.839
	l-30.286,27.108c-1.393,1.247-3.141,1.87-4.889,1.87s-3.508-0.623-4.889-1.87l-30.298-27.108L155.219,389.084h-1.186
	c-5.42,0-9.814-4.394-9.814-9.814v-0.024L281.935,256L144.219,132.755v-0.024c0-5.42,4.394-9.814,9.814-9.814h1.173L328.11,277.645
	L501,122.916h1.186c5.42,0,9.814,4.394,9.814,9.814L512,132.755L512,132.755z"/>
<g>
	<path style="fill:#EDEBEB;" d="M102.66,161.895H31.166c-3.713,0-6.722-3.009-6.722-6.722c0-3.713,3.009-6.722,6.722-6.722h71.494
		c3.713,0,6.722,3.009,6.722,6.722C109.382,158.886,106.373,161.895,102.66,161.895z"/>
	<path style="fill:#EDEBEB;" d="M108.771,290.219H43.388c-3.713,0-6.722-3.009-6.722-6.722c0-3.713,3.009-6.722,6.722-6.722h65.383
		c3.713,0,6.722,3.009,6.722,6.722C115.493,287.21,112.484,290.219,108.771,290.219z"/>
	<path style="fill:#EDEBEB;" d="M84.327,235.223H6.722c-3.713,0-6.722-3.009-6.722-6.722c0-3.713,3.009-6.722,6.722-6.722h77.605
		c3.713,0,6.722,3.009,6.722,6.722C91.049,232.214,88.04,235.223,84.327,235.223z"/>
	<path style="fill:#EDEBEB;" d="M84.327,363.546H76.81c-3.713,0-6.722-3.009-6.722-6.722c0-3.713,3.009-6.722,6.722-6.722h7.518
		c3.713,0,6.722,3.009,6.722,6.722C91.049,360.537,88.04,363.546,84.327,363.546z"/>
	<path style="fill:#EDEBEB;" d="M46.255,363.546H6.722c-3.713,0-6.722-3.009-6.722-6.722c0-3.713,3.009-6.722,6.722-6.722h39.533
		c3.713,0,6.722,3.009,6.722,6.722C52.977,360.537,49.968,363.546,46.255,363.546z"/>
</g>
<g>
</g>
<g>
</g>
<g>
</g>
<g>
</g>
<g>
</g>
<g>
</g>
<g>
</g>
<g>
</g>
<g>
</g>
<g>
</g>
<g>
</g>
<g>
</g>
<g>
</g>
<g>
</g>
<g>
</g>
</svg>
